<!-- Generated by IcoMoon.io -->
<svg version="1.1" xmlns="http://www.w3.org/2000/svg" width="111" height="32" viewBox="0 0 111 32">
<title>logo</title>
    <symbol id="logo" viewBox="0 0 111 32">
    <path fill="#8f174f" d="M2.689 12.876v12.321h7.712l0.425-2.051h-5.68v-3.127h4.7l0.428-2.22h-5.127v-2.876h5.221l0.459-2.048z"></path>
    <path fill="#8f174f" d="M81.322 19.825c0.46 0.057 1.086 0.147 1.397 0.302 0.312 0.157 0.573 0.385 0.758 0.61s0.317 0.479 0.397 0.762 0.121 0.568 0.121 0.857v0.174c0 0.508-0.093 0.943-0.277 1.306s-0.447 0.657-0.787 0.883c-0.341 0.225-0.989 0.406-1.468 0.51s-1.006 0.155-1.584 0.155c-0.484 0-1.004-0.038-1.557-0.111-0.554-0.076-1.108-0.199-1.661-0.373l0.385-1.689c0.542 0.15 1.033 0.24 1.471 0.304s0.877 0.086 1.315 0.095c0.412 0.009 0.676 0.006 0.95-0.024 0.252-0.028 0.44-0.102 0.578-0.193 0.139-0.093 0.268-0.236 0.309-0.378 0.036-0.12 0.046-0.19 0.046-0.363 0-0.265-0.074-0.453-0.206-0.631s-0.407-0.277-0.835-0.334l-1.285-0.177c-0.901-0.114-1.826-0.361-2.253-0.787s-0.641-0.992-0.641-1.695v-0.174c0-0.911 0.337-1.595 1.013-2.051s1.911-0.744 3.169-0.744c0.622 0 1.185 0.046 1.688 0.139s0.902 0.196 1.202 0.312l-0.412 1.638c-0.404-0.105-0.815-0.18-1.202-0.231-0.423-0.056-0.795-0.082-1.234-0.082-0.796 0-1.31 0.046-1.593 0.211-0.283 0.168-0.405 0.327-0.405 0.696 0 0.311 0.102 0.484 0.274 0.616 0.174 0.133 0.45 0.24 0.888 0.298l1.437 0.171z"></path>
    <path fill="#8f174f" d="M73.114 16.219c-0.66-0.168-1.303-0.21-2.046-0.21-0.707 0-1.558 0.088-2.115 0.256s-1.030 0.424-1.419 0.77c-0.39 0.346-0.689 0.791-0.898 1.333s-0.315 1.187-0.315 1.939v0.606c0 1.465 0.296 2.541 0.889 3.227 0.593 0.687 1.691 1.128 2.867 1.128 1.221 0 1.986-0.334 2.61-0.936v0.393c0 0.958-0.162 1.529-0.563 2.014s-1.115 0.696-2.037 0.655c-0.644-0.028-1.016-0.067-1.506-0.146-0.491-0.081-0.949-0.189-1.368-0.315l-0.403 1.833c0.563 0.196 1.141 0.337 1.734 0.424s1.249 0.113 1.967 0.13c1.485 0.034 2.619-0.404 3.403-1.212s1.133-1.95 1.133-3.427v-7.737c-0.538-0.288-1.274-0.556-1.933-0.724zM72.687 21.116c0 0.807-0.156 1.402-0.466 1.782-0.312 0.381-0.808 0.572-1.489 0.572-0.393 0-0.712-0.058-0.961-0.174s-0.441-0.285-0.58-0.51c-0.139-0.226-0.234-0.499-0.285-0.823-0.052-0.323-0.079-0.698-0.079-1.124v-0.622c0-0.923 0.176-1.581 0.528-1.973s0.908-0.588 1.67-0.588c0.299 0 0.6 0.030 0.9 0.086s0.553 0.15 0.761 0.277v3.098z"></path>
    <path fill="#8f174f" d="M56.479 25.198v-8.981h2.193l0.138 0.97c0.288-0.381 0.66-0.673 1.117-0.874s0.977-0.303 1.566-0.303c0.484 0 1.034 0.064 1.432 0.19s0.741 0.321 1.030 0.58c0.288 0.26 0.513 0.585 0.675 0.978s0.243 0.854 0.243 1.384v6.056h-2.388v-5.486c0-0.726-0.133-1.243-0.397-1.549-0.266-0.306-0.662-0.457-1.285-0.457-0.68 0-1.185 0.356-1.487 0.767-0.318 0.434-0.363 1.304-0.363 2.089v4.635h-2.471z"></path>
    <path fill="#8f174f" d="M28.016 18.227c-0.14-0.034-0.306-0.068-0.502-0.104-0.197-0.034-0.398-0.051-0.607-0.051-0.761 0-1.312 0.199-1.653 0.596s-0.427 0.83-0.427 1.649v4.88h-2.588v-8.981h2.312l0.139 1.073c0.288-0.392 0.647-0.689 1.073-0.892s0.94-0.302 1.54-0.302c0.231 0 0.436 0.014 0.615 0.043s0.365 0.078 0.563 0.147l-0.464 1.942z"></path>
    <path fill="#8f174f" d="M20.644 16.217v8.982h-2.192l-0.138-0.969c-0.288 0.381-0.66 0.672-1.117 0.873s-0.978 0.303-1.566 0.303c-0.485 0-1.034-0.064-1.433-0.191-0.397-0.127-0.741-0.32-1.029-0.58s-0.513-0.585-0.675-0.978c-0.162-0.392-0.242-0.854-0.242-1.384v-6.056h2.387v5.487c0 0.726 0.133 1.243 0.398 1.549 0.265 0.305 0.662 0.456 1.285 0.456 0.68 0 1.185-0.356 1.488-0.767 0.318-0.434 0.363-1.305 0.363-2.088v-4.637h2.47z"></path>
    <path fill="#8f174f" d="M53.603 12.591c0.483 0 0.852 0.107 1.068 0.309s0.325 0.514 0.325 0.883-0.108 0.681-0.325 0.883c-0.216 0.202-0.585 0.296-1.068 0.296-0.481 0-0.864-0.095-1.080-0.296s-0.325-0.513-0.325-0.883c0-0.369 0.108-0.681 0.325-0.883s0.599-0.309 1.080-0.309zM52.405 16.217h2.437v8.982h-2.437v-8.982z"></path>
    <path fill="#8f174f" d="M47.435 21.734l1.321-5.517h2.4l-2.648 8.982h-2.19l-1.565-5.431-1.545 5.431h-2.27l-2.708-8.982h2.539l1.337 5.575 1.472-5.194h2.388z"></path>
    <path fill="#8f174f" d="M37.505 18.613c-0.133-0.53-0.358-0.986-0.675-1.367s-0.742-0.681-1.273-0.9c-0.53-0.219-1.391-0.325-2.187-0.325s-1.687 0.135-2.217 0.354c-0.531 0.219-0.955 0.519-1.272 0.9s-0.546 0.837-0.684 1.367c-0.138 0.531-0.249 1.069-0.249 1.692v0.727c0 0.622 0.1 1.187 0.233 1.718s0.358 0.989 0.675 1.375c0.317 0.387 0.741 0.69 1.271 0.909s1.436 0.354 2.243 0.354c0.807 0 1.691-0.123 2.227-0.354 0.537-0.23 0.961-0.542 1.272-0.933s0.531-0.851 0.657-1.376c0.127-0.524 0.233-1.084 0.233-1.684v-0.727c-0.001-0.623-0.123-1.199-0.255-1.731zM35.361 21.2c0 0.935-0.146 1.595-0.441 1.982s-0.804 0.579-1.531 0.579c-0.359 0-0.663-0.040-0.917-0.121-0.254-0.080-0.465-0.218-0.632-0.415-0.168-0.196-0.289-0.458-0.363-0.788-0.076-0.329-0.112-0.741-0.112-1.237v-1.003c0-0.923 0.152-1.578 0.458-1.965s0.828-0.579 1.566-0.579 1.251 0.193 1.539 0.579c0.29 0.387 0.433 1.042 0.433 1.965v1.003z"></path>
    <path fill="#7bcbe2" d="M92.572 2.721c-1.958-0.268-2.951 0.822-4.322 1.823l-4.688 3.681 0.902 0.477c0.002 0.002 0.004 0.002 0.006 0.004 1.174 0.577 2.806 0.38 3.917-0.444l6.506-5.171-2.322-0.371z"></path>
    <path fill="#089bc9" d="M83.564 8.224l0.901 0.478c0.002 0.001 0.004 0.002 0.006 0.003 1.174 0.578 2.807 0.381 3.918-0.444l2.735-2.174-7.56 2.136z"></path>
    <path fill="#8f174f" d="M100.575 4.994l-2.516-0.453c0 0-1.751-0.416-3.215 0.717 0 0-1.080 0.804-1.877 1.425l-1.772 1.403-4.133 3.287 1.237 0.654c1.174 0.58 2.81 0.384 3.923-0.441l3.665-2.903 4.686-3.691z"></path>
    <path fill="#c8c4c3" d="M92.968 6.684c0.795-0.622 1.876-1.425 1.876-1.425 0.277-0.215 0.564-0.373 0.848-0.49l-4.566 1.32-0.757 0.601-1.977 1.572c-1.111 0.824-2.745 1.021-3.918 0.444 1.001 0.6 2.555 0.738 4.896 0.039l1.599-0.476 2.001-1.585z"></path>
    <path fill="#c8c4c3" d="M99.409 8.082c0.754-0.591 1.324-1.018 1.89-1.272l-5.111 1.639-0.3 0.237-3.665 2.902c-1.113 0.825-2.749 1.022-3.923 0.441 1.804 0.991 4.583 0.262 6.92-0.569l0.139-0.113c-0.001 0 3.911-3.165 4.051-3.265z"></path>
    <path fill="#c8c4c3" d="M105.42 11.375c-2.052-0.596-2.667-0.219-5.084 0.508h-0.001l-0.202 0.168v0l-0.006 0.004-3.895 3.089c-1.11 0.823-2.845 0.981-4.018 0.406 1.448 0.755 2.945 0.57 5.507-0.229l10.267-3.152-2.568-0.794z"></path>
    <path fill="#8f174f" d="M106.101 7.115l-2.716-0.494c-1.627-0.302-2.397 0.224-3.977 1.461-0.139 0.102-4.051 3.265-4.051 3.265l-4.391 3.543 1.237 0.654c1.175 0.581 2.917 0.423 4.030-0.402l3.898-3.091 5.97-4.936z"></path>
    <path fill="#b4175e" d="M90.967 8.269l8.685-2.549-3.464 2.729-9.125 2.926z"></path>
    <path fill="#b4175e" d="M95.218 11.459l9.457-3.165-4.34 3.588-9.368 3.008z"></path>
</symbol>
</svg>
